<svg width="453" height="71" viewBox="0 0 453 71" fill="none" xmlns="http://www.w3.org/2000/svg">
<path d="M2.93758 65.9219H1.50991L4.7178 57.0077H6.27169L9.47959 65.9219H8.05192L5.53175 58.6269H5.4621L2.93758 65.9219ZM3.17697 62.4311H7.80817V63.5627H3.17697V62.4311ZM10.6624 65.9219V59.2362H11.9203V60.2983H11.99C12.1118 59.9385 12.3266 59.6555 12.6342 59.4495C12.9446 59.2406 13.2958 59.1361 13.6875 59.1361C13.7687 59.1361 13.8645 59.139 13.9748 59.1448C14.0879 59.1506 14.1764 59.1579 14.2403 59.1666V60.4114C14.1881 60.3969 14.0952 60.381 13.9617 60.3636C13.8282 60.3432 13.6948 60.3331 13.5613 60.3331C13.2537 60.3331 12.9795 60.3984 12.7386 60.529C12.5007 60.6566 12.3121 60.8351 12.1728 61.0643C12.0335 61.2907 11.9639 61.5489 11.9639 61.8391V65.9219H10.6624ZM18.8824 59.2362V60.2809H15.2305V59.2362H18.8824ZM16.2099 57.6345H17.5113V63.9588C17.5113 64.2113 17.549 64.4014 17.6245 64.529C17.6999 64.6538 17.7971 64.7394 17.9161 64.7858C18.038 64.8294 18.17 64.8511 18.3122 64.8511C18.4166 64.8511 18.508 64.8439 18.5864 64.8294C18.6647 64.8149 18.7257 64.8032 18.7692 64.7945L19.0042 65.8696C18.9288 65.8987 18.8214 65.9277 18.6821 65.9567C18.5429 65.9886 18.3688 66.006 18.1598 66.0089C17.8174 66.0147 17.4982 65.9538 17.2023 65.8261C16.9063 65.6984 16.6669 65.5011 16.4841 65.2342C16.3013 64.9672 16.2099 64.632 16.2099 64.2287V57.6345ZM25.4157 65.9219L22.9434 57.0077H24.358L26.0947 63.911H26.1774L27.9837 57.0077H29.3853L31.1916 63.9153H31.2743L33.0067 57.0077H34.4256L31.949 65.9219H30.5953L28.7193 59.2449H28.6497L26.7737 65.9219H25.4157ZM37.7053 66.0568C37.0786 66.0568 36.5316 65.9132 36.0644 65.6259C35.5972 65.3386 35.2345 64.9367 34.9762 64.4202C34.718 63.9037 34.5889 63.3001 34.5889 62.6095C34.5889 61.916 34.718 61.3095 34.9762 60.7901C35.2345 60.2707 35.5972 59.8674 36.0644 59.5801C36.5316 59.2928 37.0786 59.1492 37.7053 59.1492C38.3321 59.1492 38.8791 59.2928 39.3463 59.5801C39.8135 59.8674 40.1762 60.2707 40.4344 60.7901C40.6927 61.3095 40.8218 61.916 40.8218 62.6095C40.8218 63.3001 40.6927 63.9037 40.4344 64.4202C40.1762 64.9367 39.8135 65.3386 39.3463 65.6259C38.8791 65.9132 38.3321 66.0568 37.7053 66.0568ZM37.7097 64.9643C38.1159 64.9643 38.4525 64.8569 38.7195 64.6422C38.9865 64.4275 39.1838 64.1416 39.3115 63.7847C39.442 63.4278 39.5073 63.0346 39.5073 62.6052C39.5073 62.1786 39.442 61.7869 39.3115 61.43C39.1838 61.0701 38.9865 60.7814 38.7195 60.5638C38.4525 60.3461 38.1159 60.2373 37.7097 60.2373C37.3005 60.2373 36.961 60.3461 36.6912 60.5638C36.4242 60.7814 36.2254 61.0701 36.0949 61.43C35.9672 61.7869 35.9033 62.1786 35.9033 62.6052C35.9033 63.0346 35.9672 63.4278 36.0949 63.7847C36.2254 64.1416 36.4242 64.4275 36.6912 64.6422C36.961 64.8569 37.3005 64.9643 37.7097 64.9643ZM42.2745 65.9219V59.2362H43.5324V60.2983H43.6021C43.7239 59.9385 43.9387 59.6555 44.2463 59.4495C44.5568 59.2406 44.9079 59.1361 45.2996 59.1361C45.3808 59.1361 45.4766 59.139 45.5869 59.1448C45.7 59.1506 45.7885 59.1579 45.8524 59.1666V60.4114C45.8002 60.3969 45.7073 60.381 45.5738 60.3636C45.4403 60.3432 45.3069 60.3331 45.1734 60.3331C44.8658 60.3331 44.5916 60.3984 44.3507 60.529C44.1128 60.6566 43.9242 60.8351 43.7849 61.0643C43.6456 61.2907 43.576 61.5489 43.576 61.8391V65.9219H42.2745ZM48.1756 63.6542L48.1669 62.0654H48.3932L51.0571 59.2362H52.6153L49.5772 62.4572H49.3726L48.1756 63.6542ZM46.9786 65.9219V57.0077H48.2801V65.9219H46.9786ZM51.2007 65.9219L48.8067 62.7445L49.7034 61.8347L52.7981 65.9219H51.2007ZM58.8113 60.8685L57.6317 61.0774C57.5824 60.9265 57.504 60.7829 57.3967 60.6465C57.2922 60.5101 57.15 60.3984 56.9701 60.3113C56.7902 60.2243 56.5653 60.1807 56.2954 60.1807C55.9269 60.1807 55.6193 60.2634 55.3727 60.4288C55.126 60.5913 55.0027 60.8017 55.0027 61.06C55.0027 61.2834 55.0854 61.4633 55.2508 61.5997C55.4162 61.7361 55.6832 61.8478 56.0517 61.9349L57.1137 62.1786C57.7289 62.3208 58.1874 62.5399 58.4892 62.8359C58.791 63.1318 58.9419 63.5163 58.9419 63.9893C58.9419 64.3897 58.8258 64.7467 58.5936 65.0601C58.3644 65.3705 58.0438 65.6143 57.6317 65.7913C57.2226 65.9683 56.7481 66.0568 56.2084 66.0568C55.4597 66.0568 54.8489 65.8972 54.3759 65.578C53.903 65.2559 53.6128 64.7989 53.5054 64.2069L54.7633 64.0154C54.8417 64.3433 55.0027 64.5914 55.2465 64.7597C55.4902 64.9251 55.808 65.0078 56.1997 65.0078C56.6263 65.0078 56.9672 64.9193 57.2226 64.7423C57.4779 64.5624 57.6056 64.3433 57.6056 64.0851C57.6056 63.8761 57.5272 63.7006 57.3706 63.5584C57.2168 63.4162 56.9803 63.3088 56.6611 63.2363L55.5294 62.9882C54.9055 62.846 54.4441 62.6197 54.1452 62.3092C53.8493 61.9987 53.7013 61.6055 53.7013 61.1296C53.7013 60.735 53.8115 60.3897 54.0321 60.0937C54.2526 59.7977 54.5573 59.567 54.9461 59.4016C55.335 59.2333 55.7804 59.1492 56.2824 59.1492C57.0049 59.1492 57.5737 59.3059 57.9886 59.6193C58.4036 59.9297 58.6778 60.3461 58.8113 60.8685Z" fill="#848586"/>
<path d="M14.1874 9.41452H18.6367V25.888H22.8838V29.6938H18.6367V36H14.2977L14.3161 29.6938H1.94266V25.888L14.1874 9.41452ZM6.13456 25.888H14.2794V14.967L6.13456 25.888ZM25.901 17.3938C25.901 15.5798 26.3361 14.0538 27.2064 12.8158C28.0766 11.5656 29.2411 10.628 30.6996 10.0029C32.1705 9.36549 33.8007 9.04681 35.5902 9.04681C37.5145 9.04681 39.2183 9.31034 40.7014 9.83739C42.1967 10.3522 43.3673 11.1305 44.213 12.1724C45.071 13.2142 45.5 14.5073 45.5 16.0517C45.5 17.3632 45.1016 18.5337 44.3049 19.5633C43.5082 20.5929 42.2519 21.4019 40.5359 21.9902C41.6023 22.2844 42.5583 22.7256 43.404 23.314C44.2498 23.8901 44.9178 24.6132 45.4081 25.4835C45.9106 26.3537 46.1619 27.3772 46.1619 28.5539C46.1619 29.8163 45.8861 30.9379 45.3345 31.9184C44.7952 32.899 44.0353 33.7263 43.0547 34.4005C42.0864 35.0623 40.9526 35.5649 39.6534 35.9081C38.3542 36.239 36.9569 36.4045 35.4615 36.4045C33.4636 36.3922 31.7415 36.049 30.2952 35.3749C28.8488 34.7008 27.7212 33.7386 26.9122 32.4884C26.1155 31.2381 25.6988 29.755 25.662 28.0391H30.0194C30.2768 29.6202 30.9019 30.7969 31.8947 31.5691C32.8998 32.329 34.1194 32.709 35.5534 32.709C36.7424 32.709 37.7719 32.5313 38.6422 32.1758C39.5124 31.8081 40.1804 31.3056 40.6462 30.6682C41.1242 30.0308 41.3633 29.2893 41.3633 28.4435C41.3633 27.5488 41.1059 26.7827 40.5911 26.1454C40.0885 25.508 39.396 25.0177 38.5135 24.6745C37.631 24.3313 36.6382 24.1475 35.535 24.1229L33.0714 24.0494V20.4091L35.3512 20.3171C36.4053 20.2804 37.3307 20.0781 38.1274 19.7104C38.9364 19.3427 39.5676 18.8586 40.0211 18.258C40.4746 17.6574 40.7014 16.9832 40.7014 16.2356C40.7014 15.5492 40.4869 14.9302 40.0579 14.3786C39.6411 13.827 39.0467 13.3981 38.2745 13.0916C37.5023 12.7729 36.5891 12.6136 35.535 12.6136C34.6403 12.6136 33.8007 12.7729 33.0162 13.0916C32.2318 13.4103 31.5821 13.9251 31.0674 14.636C30.5648 15.3347 30.289 16.2539 30.24 17.3938H25.901ZM59.2719 9.04681C62.3117 9.04681 64.714 10.2174 66.479 12.5584C68.2563 14.8873 69.1449 18.2886 69.1449 22.7624C69.1449 27.2117 68.2624 30.6008 66.4974 32.9296C64.7447 35.2462 62.33 36.4045 59.2535 36.4045C56.177 36.4045 53.7562 35.2462 51.9912 32.9296C50.2385 30.613 49.3621 27.2362 49.3621 22.7992C49.3621 19.8085 49.7666 17.2958 50.5756 15.2611C51.3845 13.2142 52.5305 11.6698 54.0136 10.628C55.4967 9.57386 57.2495 9.04681 59.2719 9.04681ZM59.2719 32.6722C61.0001 32.6722 62.2871 31.9062 63.1329 30.374C63.9786 28.8419 64.4015 26.3108 64.4015 22.7808C64.4015 19.1772 63.9725 16.591 63.1145 15.0221C62.2565 13.4532 60.9695 12.6688 59.2535 12.6688C57.5375 12.6688 56.2383 13.4593 55.3558 15.0405C54.4855 16.6216 54.0504 19.2018 54.0504 22.7808C54.0504 26.2986 54.4855 28.8296 55.3558 30.374C56.2383 31.9062 57.5437 32.6722 59.2719 32.6722ZM95.4871 36H90.5414L82.9482 23.0382L78.7011 28.0207V36H74.0496V9.41452H78.7011V22.3028L89.4015 9.41452H94.6046L86.1656 19.784L95.4871 36ZM115.497 20.9606V24.2884L98.8028 24.3068V20.979L115.497 20.9606ZM108.841 30.9624H105.514L105.495 14.2683H108.823L108.841 30.9624Z" fill="#141416"/>
<path d="M191.761 59.9065H190.403C190.35 59.6164 190.253 59.361 190.111 59.1405C189.969 58.9199 189.795 58.7328 189.589 58.579C189.383 58.4252 189.152 58.3091 188.897 58.2308C188.644 58.1524 188.376 58.1132 188.091 58.1132C187.578 58.1132 187.118 58.2424 186.712 58.5006C186.308 58.7589 185.989 59.1376 185.754 59.6367C185.522 60.1358 185.406 60.7451 185.406 61.4648C185.406 62.1902 185.522 62.8025 185.754 63.3016C185.989 63.8007 186.31 64.1779 186.716 64.4333C187.122 64.6886 187.579 64.8163 188.087 64.8163C188.369 64.8163 188.636 64.7786 188.888 64.7031C189.143 64.6248 189.374 64.5102 189.58 64.3593C189.786 64.2084 189.96 64.0241 190.102 63.8065C190.247 63.586 190.348 63.3335 190.403 63.0491L191.761 63.0535C191.688 63.4917 191.547 63.895 191.339 64.2635C191.132 64.6291 190.867 64.9454 190.542 65.2124C190.22 65.4765 189.851 65.681 189.436 65.8261C189.021 65.9712 188.569 66.0437 188.078 66.0437C187.307 66.0437 186.619 65.8609 186.015 65.4953C185.412 65.1268 184.936 64.6001 184.588 63.9153C184.242 63.2305 184.07 62.4137 184.07 61.4648C184.07 60.513 184.244 59.6962 184.592 59.0142C184.94 58.3294 185.416 57.8042 186.02 57.4386C186.623 57.0701 187.309 56.8858 188.078 56.8858C188.551 56.8858 188.992 56.954 189.402 57.0904C189.814 57.2239 190.184 57.4212 190.512 57.6823C190.839 57.9406 191.111 58.2569 191.325 58.6312C191.54 59.0026 191.685 59.4277 191.761 59.9065ZM193.266 65.9219V59.2362H194.524V60.2983H194.593C194.715 59.9385 194.93 59.6555 195.237 59.4495C195.548 59.2406 195.899 59.1361 196.291 59.1361C196.372 59.1361 196.468 59.139 196.578 59.1448C196.691 59.1506 196.78 59.1579 196.844 59.1666V60.4114C196.791 60.3969 196.698 60.381 196.565 60.3636C196.431 60.3432 196.298 60.3331 196.164 60.3331C195.857 60.3331 195.583 60.3984 195.342 60.529C195.104 60.6566 194.915 60.8351 194.776 61.0643C194.637 61.2907 194.567 61.5489 194.567 61.8391V65.9219H193.266ZM200.612 66.0568C199.953 66.0568 199.386 65.9161 198.91 65.6346C198.437 65.3502 198.071 64.9512 197.813 64.4376C197.558 63.9211 197.43 63.3161 197.43 62.6226C197.43 61.9378 197.558 61.3342 197.813 60.8119C198.071 60.2896 198.431 59.8819 198.893 59.5888C199.357 59.2957 199.899 59.1492 200.52 59.1492C200.898 59.1492 201.263 59.2116 201.617 59.3363C201.971 59.4611 202.289 59.657 202.57 59.9239C202.852 60.1909 203.074 60.5377 203.236 60.9642C203.399 61.3879 203.48 61.9029 203.48 62.5094V62.9708H198.166V61.9958H202.205C202.205 61.6534 202.135 61.3502 201.996 61.0861C201.857 60.8191 201.661 60.6088 201.408 60.455C201.159 60.3012 200.866 60.2243 200.529 60.2243C200.163 60.2243 199.844 60.3142 199.572 60.4941C199.302 60.6711 199.093 60.9033 198.945 61.1906C198.8 61.4749 198.727 61.784 198.727 62.1177V62.8794C198.727 63.3263 198.805 63.7064 198.962 64.0198C199.122 64.3332 199.344 64.5726 199.628 64.738C199.912 64.9005 200.245 64.9817 200.625 64.9817C200.872 64.9817 201.096 64.9469 201.3 64.8772C201.503 64.8047 201.678 64.6973 201.826 64.5551C201.974 64.413 202.087 64.2374 202.166 64.0285L203.397 64.2505C203.299 64.6132 203.122 64.9309 202.866 65.2037C202.614 65.4736 202.296 65.6839 201.913 65.8348C201.533 65.9828 201.099 66.0568 200.612 66.0568ZM206.87 66.0699C206.446 66.0699 206.063 65.9915 205.721 65.8348C205.378 65.6752 205.107 65.4445 204.907 65.1428C204.709 64.841 204.611 64.471 204.611 64.0328C204.611 63.6556 204.683 63.3451 204.828 63.1014C204.974 62.8576 205.169 62.6647 205.416 62.5225C205.663 62.3803 205.938 62.2729 206.243 62.2004C206.548 62.1278 206.858 62.0727 207.174 62.035C207.575 61.9885 207.9 61.9508 208.149 61.9218C208.399 61.8899 208.58 61.8391 208.694 61.7695C208.807 61.6998 208.863 61.5866 208.863 61.43V61.3995C208.863 61.0194 208.756 60.7248 208.541 60.5159C208.329 60.307 208.013 60.2025 207.592 60.2025C207.154 60.2025 206.809 60.2997 206.556 60.4941C206.307 60.6857 206.134 60.8989 206.038 61.134L204.815 60.8554C204.96 60.4492 205.172 60.1213 205.451 59.8717C205.732 59.6193 206.056 59.4364 206.421 59.3233C206.787 59.2072 207.172 59.1492 207.575 59.1492C207.842 59.1492 208.125 59.1811 208.424 59.2449C208.725 59.3059 209.007 59.419 209.268 59.5844C209.532 59.7498 209.748 59.9863 209.917 60.2939C210.085 60.5986 210.169 60.9947 210.169 61.4822V65.9219H208.898V65.0078H208.846C208.762 65.1761 208.636 65.3415 208.467 65.504C208.299 65.6665 208.083 65.8015 207.819 65.9088C207.555 66.0162 207.238 66.0699 206.87 66.0699ZM207.153 65.0252C207.513 65.0252 207.82 64.9541 208.075 64.812C208.334 64.6698 208.53 64.4841 208.663 64.2548C208.799 64.0227 208.868 63.7746 208.868 63.5105V62.6487C208.821 62.6951 208.731 62.7386 208.598 62.7793C208.467 62.817 208.318 62.8504 208.149 62.8794C207.981 62.9055 207.817 62.9302 207.658 62.9534C207.498 62.9737 207.365 62.9911 207.257 63.0056C207.005 63.0375 206.774 63.0912 206.565 63.1667C206.359 63.2421 206.194 63.3509 206.069 63.4931C205.947 63.6324 205.886 63.8181 205.886 64.0502C205.886 64.3723 206.005 64.6161 206.243 64.7815C206.481 64.944 206.784 65.0252 207.153 65.0252ZM215.023 59.2362V60.2809H211.372V59.2362H215.023ZM212.351 57.6345H213.652V63.9588C213.652 64.2113 213.69 64.4014 213.765 64.529C213.841 64.6538 213.938 64.7394 214.057 64.7858C214.179 64.8294 214.311 64.8511 214.453 64.8511C214.558 64.8511 214.649 64.8439 214.727 64.8294C214.806 64.8149 214.867 64.8032 214.91 64.7945L215.145 65.8696C215.07 65.8987 214.962 65.9277 214.823 65.9567C214.684 65.9886 214.51 66.006 214.301 66.0089C213.958 66.0147 213.639 65.9538 213.343 65.8261C213.047 65.6984 212.808 65.5011 212.625 65.2342C212.442 64.9672 212.351 64.632 212.351 64.2287V57.6345ZM219.207 66.0568C218.581 66.0568 218.034 65.9132 217.566 65.6259C217.099 65.3386 216.737 64.9367 216.478 64.4202C216.22 63.9037 216.091 63.3001 216.091 62.6095C216.091 61.916 216.22 61.3095 216.478 60.7901C216.737 60.2707 217.099 59.8674 217.566 59.5801C218.034 59.2928 218.581 59.1492 219.207 59.1492C219.834 59.1492 220.381 59.2928 220.848 59.5801C221.315 59.8674 221.678 60.2707 221.936 60.7901C222.195 61.3095 222.324 61.916 222.324 62.6095C222.324 63.3001 222.195 63.9037 221.936 64.4202C221.678 64.9367 221.315 65.3386 220.848 65.6259C220.381 65.9132 219.834 66.0568 219.207 66.0568ZM219.212 64.9643C219.618 64.9643 219.955 64.8569 220.222 64.6422C220.488 64.4275 220.686 64.1416 220.813 63.7847C220.944 63.4278 221.009 63.0346 221.009 62.6052C221.009 62.1786 220.944 61.7869 220.813 61.43C220.686 61.0701 220.488 60.7814 220.222 60.5638C219.955 60.3461 219.618 60.2373 219.212 60.2373C218.803 60.2373 218.463 60.3461 218.193 60.5638C217.926 60.7814 217.727 61.0701 217.597 61.43C217.469 61.7869 217.405 62.1786 217.405 62.6052C217.405 63.0346 217.469 63.4278 217.597 63.7847C217.727 64.1416 217.926 64.4275 218.193 64.6422C218.463 64.8569 218.803 64.9643 219.212 64.9643ZM223.777 65.9219V59.2362H225.034V60.2983H225.104C225.226 59.9385 225.441 59.6555 225.748 59.4495C226.059 59.2406 226.41 59.1361 226.802 59.1361C226.883 59.1361 226.979 59.139 227.089 59.1448C227.202 59.1506 227.291 59.1579 227.354 59.1666V60.4114C227.302 60.3969 227.209 60.381 227.076 60.3636C226.942 60.3432 226.809 60.3331 226.675 60.3331C226.368 60.3331 226.094 60.3984 225.853 60.529C225.615 60.6566 225.426 60.8351 225.287 61.0643C225.148 61.2907 225.078 61.5489 225.078 61.8391V65.9219H223.777ZM233.491 60.8685L232.311 61.0774C232.262 60.9265 232.183 60.7829 232.076 60.6465C231.971 60.5101 231.829 60.3984 231.649 60.3113C231.469 60.2243 231.245 60.1807 230.975 60.1807C230.606 60.1807 230.299 60.2634 230.052 60.4288C229.805 60.5913 229.682 60.8017 229.682 61.06C229.682 61.2834 229.765 61.4633 229.93 61.5997C230.095 61.7361 230.362 61.8478 230.731 61.9349L231.793 62.1786C232.408 62.3208 232.867 62.5399 233.168 62.8359C233.47 63.1318 233.621 63.5163 233.621 63.9893C233.621 64.3897 233.505 64.7467 233.273 65.0601C233.044 65.3705 232.723 65.6143 232.311 65.7913C231.902 65.9683 231.427 66.0568 230.888 66.0568C230.139 66.0568 229.528 65.8972 229.055 65.578C228.582 65.2559 228.292 64.7989 228.185 64.2069L229.443 64.0154C229.521 64.3433 229.682 64.5914 229.926 64.7597C230.169 64.9251 230.487 65.0078 230.879 65.0078C231.305 65.0078 231.646 64.9193 231.902 64.7423C232.157 64.5624 232.285 64.3433 232.285 64.0851C232.285 63.8761 232.206 63.7006 232.05 63.5584C231.896 63.4162 231.66 63.3088 231.34 63.2363L230.209 62.9882C229.585 62.846 229.123 62.6197 228.824 62.3092C228.529 61.9987 228.381 61.6055 228.381 61.1296C228.381 60.735 228.491 60.3897 228.711 60.0937C228.932 59.7977 229.237 59.567 229.625 59.4016C230.014 59.2333 230.46 59.1492 230.962 59.1492C231.684 59.1492 232.253 59.3059 232.668 59.6193C233.083 59.9297 233.357 60.3461 233.491 60.8685Z" fill="#848586"/>
<path d="M190.274 36V15.5185H185.347V12.8526C186.903 12.8526 188.135 12.7239 189.042 12.4665C189.962 12.1969 190.63 11.8046 191.046 11.2898C191.475 10.7751 191.72 10.1499 191.782 9.41452H194.834V36H190.274ZM203.473 9.41452H220.002L219.836 13.1468H207.113L206.507 20.5378C207.45 19.8759 208.4 19.3979 209.356 19.1037C210.312 18.8095 211.366 18.6624 212.519 18.6624C214.21 18.6624 215.748 18.9934 217.133 19.6553C218.518 20.3171 219.622 21.2916 220.443 22.5786C221.264 23.8655 221.675 25.4406 221.675 27.3036C221.675 29.1667 221.258 30.7785 220.424 32.139C219.603 33.4996 218.439 34.5537 216.931 35.3013C215.436 36.0368 213.665 36.4045 211.618 36.4045C209.926 36.4045 208.351 36.1287 206.893 35.5771C205.446 35.0133 204.196 34.2411 203.142 33.2606C202.1 32.28 201.322 31.1585 200.807 29.896L204.429 27.9839C204.883 28.8909 205.422 29.706 206.047 30.4292C206.684 31.1523 207.426 31.7223 208.272 32.139C209.13 32.5435 210.11 32.7458 211.213 32.7458C212.942 32.7458 214.327 32.2677 215.368 31.3117C216.423 30.3434 216.95 29.0564 216.95 27.4507C216.95 26.4579 216.704 25.5754 216.214 24.8032C215.736 24.031 215.08 23.4304 214.247 23.0014C213.426 22.5602 212.488 22.3396 211.434 22.3396C210.809 22.3396 210.22 22.3947 209.669 22.505C209.13 22.6153 208.584 22.8237 208.033 23.1301C207.481 23.4243 206.887 23.8717 206.249 24.4723C206.127 24.5336 206.035 24.5642 205.973 24.5642C205.924 24.5519 205.832 24.5152 205.698 24.4539L202.26 23.0566L203.473 9.41452ZM234.404 36.4045C232.847 36.4045 231.389 36.1042 230.028 35.5036C228.668 34.903 227.546 34.0511 226.664 32.948C225.781 31.8449 225.266 30.5456 225.119 29.0503H229.403C229.661 30.1657 230.218 31.0727 231.076 31.7713C231.934 32.4577 232.988 32.8009 234.239 32.8009C235.648 32.8009 236.868 32.4516 237.897 31.7529C238.939 31.0543 239.717 29.9573 240.232 28.4619C240.747 26.9666 240.937 25.0238 240.802 22.6337C240.471 23.4182 239.987 24.1046 239.35 24.6929C238.725 25.2812 237.977 25.7409 237.107 26.0718C236.249 26.3905 235.293 26.5498 234.239 26.5498C232.461 26.5498 230.886 26.2128 229.513 25.5386C228.153 24.8522 227.087 23.8778 226.314 22.6153C225.542 21.3406 225.156 19.833 225.156 18.0925C225.156 16.3275 225.548 14.7647 226.333 13.4042C227.129 12.0437 228.245 10.9773 229.679 10.2051C231.125 9.43291 232.823 9.04681 234.772 9.04681C236.941 9.04681 238.817 9.57999 240.398 10.6464C241.979 11.7127 243.192 13.2326 244.038 15.206C244.896 17.1793 245.325 19.5204 245.325 22.2292C245.325 25.318 244.89 27.9165 244.02 30.0247C243.162 32.1207 241.918 33.7079 240.287 34.7866C238.669 35.8652 236.708 36.4045 234.404 36.4045ZM234.9 22.9095C235.758 22.9095 236.58 22.7134 237.364 22.3212C238.149 21.9289 238.792 21.4203 239.295 20.7952C239.797 20.1701 240.048 19.5082 240.048 18.8095C240.061 17.5348 239.852 16.4317 239.423 15.5001C238.994 14.5563 238.388 13.827 237.603 13.3123C236.831 12.7852 235.924 12.5217 234.882 12.5217C233.938 12.5217 233.093 12.7484 232.345 13.2019C231.609 13.6555 231.033 14.2867 230.617 15.0957C230.2 15.8924 229.992 16.8178 229.992 17.8719C229.992 19.4408 230.427 20.6726 231.297 21.5674C232.167 22.4621 233.368 22.9095 234.9 22.9095ZM271.638 36H266.692L259.099 23.0382L254.852 28.0207V36H250.2V9.41452H254.852V22.3028L265.552 9.41452H270.755L262.316 19.784L271.638 36ZM291.647 20.9606V24.2884L274.953 24.3068V20.979L291.647 20.9606ZM284.992 30.9624H281.664L281.646 14.2683H284.973L284.992 30.9624Z" fill="#141416"/>
<path d="M367.574 59.9065H366.216C366.164 59.6164 366.066 59.361 365.924 59.1405C365.782 58.9199 365.608 58.7328 365.402 58.579C365.196 58.4252 364.965 58.3091 364.71 58.2308C364.457 58.1524 364.189 58.1132 363.905 58.1132C363.391 58.1132 362.931 58.2424 362.525 58.5006C362.121 58.7589 361.802 59.1376 361.567 59.6367C361.335 60.1358 361.219 60.7451 361.219 61.4648C361.219 62.1902 361.335 62.8025 361.567 63.3016C361.802 63.8007 362.123 64.1779 362.529 64.4333C362.935 64.6886 363.392 64.8163 363.9 64.8163C364.182 64.8163 364.449 64.7786 364.701 64.7031C364.956 64.6248 365.187 64.5102 365.393 64.3593C365.599 64.2084 365.773 64.0241 365.916 63.8065C366.061 63.586 366.161 63.3335 366.216 63.0491L367.574 63.0535C367.501 63.4917 367.361 63.895 367.152 64.2635C366.946 64.6291 366.68 64.9454 366.355 65.2124C366.033 65.4765 365.665 65.681 365.25 65.8261C364.835 65.9712 364.382 66.0437 363.892 66.0437C363.12 66.0437 362.432 65.8609 361.828 65.4953C361.225 65.1268 360.749 64.6001 360.401 63.9153C360.055 63.2305 359.883 62.4137 359.883 61.4648C359.883 60.513 360.057 59.6962 360.405 59.0142C360.753 58.3294 361.229 57.8042 361.833 57.4386C362.436 57.0701 363.123 56.8858 363.892 56.8858C364.365 56.8858 364.806 56.954 365.215 57.0904C365.627 57.2239 365.997 57.4212 366.325 57.6823C366.653 57.9406 366.924 58.2569 367.139 58.6312C367.353 59.0026 367.498 59.4277 367.574 59.9065ZM371.895 66.0568C371.268 66.0568 370.721 65.9132 370.254 65.6259C369.787 65.3386 369.424 64.9367 369.166 64.4202C368.908 63.9037 368.778 63.3001 368.778 62.6095C368.778 61.916 368.908 61.3095 369.166 60.7901C369.424 60.2707 369.787 59.8674 370.254 59.5801C370.721 59.2928 371.268 59.1492 371.895 59.1492C372.522 59.1492 373.069 59.2928 373.536 59.5801C374.003 59.8674 374.366 60.2707 374.624 60.7901C374.882 61.3095 375.011 61.916 375.011 62.6095C375.011 63.3001 374.882 63.9037 374.624 64.4202C374.366 64.9367 374.003 65.3386 373.536 65.6259C373.069 65.9132 372.522 66.0568 371.895 66.0568ZM371.899 64.9643C372.306 64.9643 372.642 64.8569 372.909 64.6422C373.176 64.4275 373.373 64.1416 373.501 63.7847C373.632 63.4278 373.697 63.0346 373.697 62.6052C373.697 62.1786 373.632 61.7869 373.501 61.43C373.373 61.0701 373.176 60.7814 372.909 60.5638C372.642 60.3461 372.306 60.2373 371.899 60.2373C371.49 60.2373 371.151 60.3461 370.881 60.5638C370.614 60.7814 370.415 61.0701 370.284 61.43C370.157 61.7869 370.093 62.1786 370.093 62.6052C370.093 63.0346 370.157 63.4278 370.284 63.7847C370.415 64.1416 370.614 64.4275 370.881 64.6422C371.151 64.8569 371.49 64.9643 371.899 64.9643ZM377.766 57.0077V65.9219H376.464V57.0077H377.766ZM380.818 57.0077V65.9219H379.516V57.0077H380.818ZM385.45 66.0568C384.791 66.0568 384.224 65.9161 383.748 65.6346C383.275 65.3502 382.91 64.9512 382.651 64.4376C382.396 63.9211 382.268 63.3161 382.268 62.6226C382.268 61.9378 382.396 61.3342 382.651 60.8119C382.91 60.2896 383.269 59.8819 383.731 59.5888C384.195 59.2957 384.738 59.1492 385.359 59.1492C385.736 59.1492 386.102 59.2116 386.456 59.3363C386.81 59.4611 387.127 59.657 387.409 59.9239C387.69 60.1909 387.912 60.5377 388.075 60.9642C388.237 61.3879 388.319 61.9029 388.319 62.5094V62.9708H383.004V61.9958H387.043C387.043 61.6534 386.974 61.3502 386.834 61.0861C386.695 60.8191 386.499 60.6088 386.247 60.455C385.997 60.3012 385.704 60.2243 385.367 60.2243C385.002 60.2243 384.683 60.3142 384.41 60.4941C384.14 60.6711 383.931 60.9033 383.783 61.1906C383.638 61.4749 383.565 61.784 383.565 62.1177V62.8794C383.565 63.3263 383.644 63.7064 383.8 64.0198C383.96 64.3332 384.182 64.5726 384.466 64.738C384.751 64.9005 385.083 64.9817 385.463 64.9817C385.71 64.9817 385.935 64.9469 386.138 64.8772C386.341 64.8047 386.517 64.6973 386.665 64.5551C386.813 64.413 386.926 64.2374 387.004 64.0285L388.236 64.2505C388.137 64.6132 387.96 64.9309 387.705 65.2037C387.452 65.4736 387.135 65.6839 386.752 65.8348C386.371 65.9828 385.938 66.0568 385.45 66.0568ZM392.579 66.0568C391.932 66.0568 391.374 65.9103 390.907 65.6172C390.443 65.3212 390.086 64.9135 389.837 64.3941C389.587 63.8747 389.462 63.2798 389.462 62.6095C389.462 61.9305 389.59 61.3313 389.845 60.8119C390.101 60.2896 390.46 59.8819 390.925 59.5888C391.389 59.2957 391.936 59.1492 392.566 59.1492C393.073 59.1492 393.526 59.2435 393.924 59.4321C394.321 59.6178 394.642 59.879 394.886 60.2156C395.132 60.5522 395.279 60.9454 395.325 61.3951H394.059C393.989 61.0817 393.829 60.8119 393.58 60.5855C393.333 60.3592 393.002 60.246 392.587 60.246C392.225 60.246 391.907 60.3418 391.634 60.5333C391.364 60.7219 391.154 60.9918 391.003 61.3429C390.852 61.6911 390.777 62.1032 390.777 62.5791C390.777 63.0665 390.851 63.4873 390.999 63.8413C391.147 64.1953 391.356 64.4695 391.625 64.664C391.898 64.8584 392.219 64.9556 392.587 64.9556C392.834 64.9556 393.057 64.9106 393.258 64.8207C393.461 64.7278 393.631 64.5958 393.767 64.4246C393.906 64.2534 394.003 64.0473 394.059 63.8065H395.325C395.279 64.2389 395.138 64.6248 394.903 64.9643C394.668 65.3038 394.353 65.5708 393.958 65.7652C393.567 65.9596 393.107 66.0568 392.579 66.0568ZM399.838 59.2362V60.2809H396.186V59.2362H399.838ZM397.165 57.6345H398.467V63.9588C398.467 64.2113 398.504 64.4014 398.58 64.529C398.655 64.6538 398.753 64.7394 398.871 64.7858C398.993 64.8294 399.125 64.8511 399.268 64.8511C399.372 64.8511 399.463 64.8439 399.542 64.8294C399.62 64.8149 399.681 64.8032 399.725 64.7945L399.96 65.8696C399.884 65.8987 399.777 65.9277 399.638 65.9567C399.498 65.9886 399.324 66.006 399.115 66.0089C398.773 66.0147 398.454 65.9538 398.158 65.8261C397.862 65.6984 397.622 65.5011 397.439 65.2342C397.257 64.9672 397.165 64.632 397.165 64.2287V57.6345ZM401.277 65.9219V59.2362H402.579V65.9219H401.277ZM401.935 58.2047C401.708 58.2047 401.514 58.1292 401.351 57.9783C401.192 57.8245 401.112 57.6417 401.112 57.4299C401.112 57.2152 401.192 57.0323 401.351 56.8815C401.514 56.7277 401.708 56.6508 401.935 56.6508C402.161 56.6508 402.354 56.7277 402.514 56.8815C402.676 57.0323 402.757 57.2152 402.757 57.4299C402.757 57.6417 402.676 57.8245 402.514 57.9783C402.354 58.1292 402.161 58.2047 401.935 58.2047ZM407.146 66.0568C406.519 66.0568 405.972 65.9132 405.505 65.6259C405.038 65.3386 404.675 64.9367 404.417 64.4202C404.158 63.9037 404.029 63.3001 404.029 62.6095C404.029 61.916 404.158 61.3095 404.417 60.7901C404.675 60.2707 405.038 59.8674 405.505 59.5801C405.972 59.2928 406.519 59.1492 407.146 59.1492C407.773 59.1492 408.32 59.2928 408.787 59.5801C409.254 59.8674 409.617 60.2707 409.875 60.7901C410.133 61.3095 410.262 61.916 410.262 62.6095C410.262 63.3001 410.133 63.9037 409.875 64.4202C409.617 64.9367 409.254 65.3386 408.787 65.6259C408.32 65.9132 407.773 66.0568 407.146 66.0568ZM407.15 64.9643C407.556 64.9643 407.893 64.8569 408.16 64.6422C408.427 64.4275 408.624 64.1416 408.752 63.7847C408.883 63.4278 408.948 63.0346 408.948 62.6052C408.948 62.1786 408.883 61.7869 408.752 61.43C408.624 61.0701 408.427 60.7814 408.16 60.5638C407.893 60.3461 407.556 60.2373 407.15 60.2373C406.741 60.2373 406.402 60.3461 406.132 60.5638C405.865 60.7814 405.666 61.0701 405.535 61.43C405.408 61.7869 405.344 62.1786 405.344 62.6052C405.344 63.0346 405.408 63.4278 405.535 63.7847C405.666 64.1416 405.865 64.4275 406.132 64.6422C406.402 64.8569 406.741 64.9643 407.15 64.9643ZM413.016 61.9523V65.9219H411.715V59.2362H412.964V60.3244H413.047C413.201 59.9704 413.442 59.686 413.769 59.4713C414.1 59.2565 414.517 59.1492 415.019 59.1492C415.474 59.1492 415.873 59.2449 416.216 59.4364C416.558 59.6251 416.824 59.9065 417.012 60.2809C417.201 60.6552 417.295 61.118 417.295 61.6693V65.9219H415.994V61.826C415.994 61.3415 415.867 60.9628 415.615 60.69C415.363 60.4143 415.016 60.2765 414.575 60.2765C414.273 60.2765 414.005 60.3418 413.769 60.4724C413.537 60.603 413.353 60.7945 413.217 61.0469C413.083 61.2965 413.016 61.5983 413.016 61.9523ZM424.05 60.8685L422.871 61.0774C422.822 60.9265 422.743 60.7829 422.636 60.6465C422.531 60.5101 422.389 60.3984 422.209 60.3113C422.029 60.2243 421.804 60.1807 421.535 60.1807C421.166 60.1807 420.858 60.2634 420.612 60.4288C420.365 60.5913 420.242 60.8017 420.242 61.06C420.242 61.2834 420.325 61.4633 420.49 61.5997C420.655 61.7361 420.922 61.8478 421.291 61.9349L422.353 62.1786C422.968 62.3208 423.427 62.5399 423.728 62.8359C424.03 63.1318 424.181 63.5163 424.181 63.9893C424.181 64.3897 424.065 64.7467 423.833 65.0601C423.604 65.3705 423.283 65.6143 422.871 65.7913C422.462 65.9683 421.987 66.0568 421.448 66.0568C420.699 66.0568 420.088 65.8972 419.615 65.578C419.142 65.2559 418.852 64.7989 418.745 64.2069L420.002 64.0154C420.081 64.3433 420.242 64.5914 420.486 64.7597C420.729 64.9251 421.047 65.0078 421.439 65.0078C421.865 65.0078 422.206 64.9193 422.462 64.7423C422.717 64.5624 422.845 64.3433 422.845 64.0851C422.845 63.8761 422.766 63.7006 422.61 63.5584C422.456 63.4162 422.219 63.3088 421.9 63.2363L420.769 62.9882C420.145 62.846 419.683 62.6197 419.384 62.3092C419.088 61.9987 418.94 61.6055 418.94 61.1296C418.94 60.735 419.051 60.3897 419.271 60.0937C419.492 59.7977 419.796 59.567 420.185 59.4016C420.574 59.2333 421.02 59.1492 421.522 59.1492C422.244 59.1492 422.813 59.3059 423.228 59.6193C423.643 59.9297 423.917 60.3461 424.05 60.8685Z" fill="#848586"/>
<path d="M371.542 9.04681C373.307 9.04681 374.888 9.33485 376.285 9.91093C377.683 10.4748 378.786 11.3082 379.595 12.4114C380.416 13.5022 380.827 14.8383 380.827 16.4194C380.827 17.829 380.447 19.0179 379.687 19.9862C378.927 20.9422 377.965 21.6777 376.8 22.1925C377.646 22.3641 378.467 22.7747 379.264 23.4243C380.061 24.0617 380.716 24.8461 381.231 25.7776C381.746 26.7092 382.003 27.6836 382.003 28.7009C382.003 30.2576 381.568 31.612 380.698 32.7641C379.84 33.9163 378.62 34.8111 377.039 35.4484C375.47 36.0735 373.638 36.3861 371.542 36.3861C369.446 36.3861 367.614 36.0735 366.045 35.4484C364.488 34.8111 363.275 33.9163 362.404 32.7641C361.534 31.612 361.099 30.2576 361.099 28.7009C361.099 27.6836 361.35 26.7092 361.853 25.7776C362.368 24.8461 363.023 24.0617 363.82 23.4243C364.617 22.7747 365.438 22.3641 366.284 22.1925C365.144 21.6777 364.188 20.9422 363.416 19.9862C362.643 19.0179 362.257 17.829 362.257 16.4194C362.257 14.8383 362.662 13.5022 363.471 12.4114C364.28 11.3082 365.383 10.4748 366.78 9.91093C368.19 9.33485 369.777 9.04681 371.542 9.04681ZM371.542 20.4091C372.939 20.4091 374.079 20.0536 374.962 19.3427C375.856 18.6195 376.304 17.6145 376.304 16.3275C376.304 15.0528 375.856 14.0415 374.962 13.2939C374.067 12.5462 372.927 12.1724 371.542 12.1724C370.157 12.1724 369.011 12.5462 368.104 13.2939C367.209 14.0415 366.762 15.0528 366.762 16.3275C366.762 17.6145 367.209 18.6195 368.104 19.3427C369.011 20.0536 370.157 20.4091 371.542 20.4091ZM371.542 32.9296C373.295 32.9296 374.68 32.5374 375.697 31.7529C376.714 30.9685 377.223 29.9205 377.223 28.609C377.223 27.7388 376.99 26.9727 376.524 26.3108C376.059 25.6367 375.403 25.1096 374.557 24.7297C373.711 24.3497 372.706 24.1597 371.542 24.1597C370.39 24.1597 369.385 24.3497 368.527 24.7297C367.681 25.1096 367.025 25.6367 366.56 26.3108C366.106 26.9727 365.879 27.7388 365.879 28.609C365.879 29.9205 366.388 30.9685 367.405 31.7529C368.435 32.5374 369.814 32.9296 371.542 32.9296ZM384.708 9.41452H404.031V13.1468C403.136 14.3112 402.248 15.6595 401.365 17.1916C400.483 18.7115 399.637 20.3233 398.828 22.027C398.019 23.7185 397.296 25.4161 396.659 27.1198C396.021 28.8113 395.5 30.4231 395.096 31.9552C394.691 33.4873 394.446 34.8356 394.36 36H389.525C389.672 34.8601 389.966 33.4383 390.408 31.7346C390.861 30.0186 391.48 28.131 392.264 26.0718C393.049 24.0004 394.023 21.8615 395.188 19.6553C396.352 17.449 397.713 15.2795 399.269 13.1468H384.708V9.41452ZM430.314 36H425.368L417.775 23.0382L413.528 28.0207V36H408.876V9.41452H413.528V22.3028L424.228 9.41452H429.431L420.992 19.784L430.314 36ZM450.323 20.9606V24.2884L433.629 24.3068V20.979L450.323 20.9606ZM443.668 30.9624H440.34L440.322 14.2683H443.649L443.668 30.9624Z" fill="#141416"/>
</svg>
